# xmcd
#
# Track frame offsets:
# 150
# 17742
# 35215
# 52960
# 75080
# 96257
# 116650
# 132975
# 151750
# 172727
# 189297
# 206657
# 220047
#
# Disc length: 3158 seconds
#
#
# Revision: 2
# Processed by: cddbd v1.5.2PL0 Copyright (c) Steve Scherf et al.
# Submitted via: FreeRIP 2.96 
#
DISCID=9e0c540d
DTITLE=Bondi Cigars [AUS] - After Closing Time
DYEAR=1995
DGENRE=Blues
TTITLE0=Separation Blues [from 'After Closing Time', 1995] [MLVox]
TTITLE1=Leaving Thing [from 'After Closing Time', 1995] [MLVox]
TTITLE2=Life After You [from 'After Closing Time', 1995] [MLVox]
TTITLE3=Intensive Care [from 'After Closing Time', 1995] [MLVox]
TTITLE4=Imitation of Love [Johnny Adams cover, 1991, written by Doc Pomus and Dr. John] [from 'After Closing Time', 1995] [MLVox]
TTITLE5=Cold Cold World [from 'After Closing Time', 1995] [MLVox]
TTITLE6=After Closing Time [from 'After Closing Time', 1995] [MLVox]
TTITLE7=Too Bad [from 'After Closing Time', 1995] [MLVox]
TTITLE8=Lead Me Not into Temptation [from 'After Closing Time', 1995] [MLVox]
TTITLE9=They Only Come Out at Night [from 'After Closing Time', 1995] [MLVox]
TTITLE10=If Walls Could Talk [Little Milton cover, 1970, written by Bobby Miller] [from 'After Closing Time', 1995] [MLVox]
TTITLE11=Paris on $10 a Day [from 'After Closing Time', 1995] [MLVox]
TTITLE12=Speakeasy [Recorded live at Snapper's Point] [from 'After Closing Time', 1995] [MLVox]
EXTD=Australian band originating in Sydney, New South Wales
EXTT0=
EXTT1=
EXTT2=
EXTT3=
EXTT4=
EXTT5=
EXTT6=
EXTT7=
EXTT8=
EXTT9=
EXTT10=
EXTT11=
EXTT12=
PLAYORDER=
